<svg width="1494" height="253" viewBox="0 0 1494 253" fill="none" xmlns="http://www.w3.org/2000/svg">
<path fill-rule="evenodd" clip-rule="evenodd" d="M4.90432 113.006L71.9439 32.9322L124.922 96.1398L99.5108 126.499L119.245 150.071C119.918 150.873 120.461 151.763 120.862 152.709C121.409 154 121.697 155.396 121.697 156.818C121.697 158.228 121.417 159.612 120.878 160.893C120.473 161.852 119.926 162.753 119.245 163.564L80.0732 210.369C75.8373 215.429 68.0463 215.429 63.8104 210.369L4.90432 139.994C1.73364 136.204 0 131.43 0 126.499C0 121.57 1.73364 116.794 4.90432 113.006ZM205.384 126.499L99.5108 0H205.384L299.953 113.006C303.119 116.794 304.857 121.57 304.857 126.499C304.857 131.43 303.119 136.204 299.953 139.994L208.563 249.205C207.569 250.392 206.324 251.348 204.92 252.003C204.051 252.408 203.132 252.693 202.192 252.852C201.612 252.95 201.023 253 200.429 253H122.127C120.114 252.999 118.146 252.427 116.446 251.352C114.75 250.277 113.397 248.743 112.54 246.928C111.688 245.115 111.375 243.096 111.63 241.109C111.889 239.123 112.707 237.25 113.994 235.711L205.384 126.499Z" fill="black"/>
<mask id="path-2-outside-1_38_99" maskUnits="userSpaceOnUse" x="319.52" y="8.6001" width="1175" height="238" fill="black">
<rect fill="white" x="319.52" y="8.6001" width="1175" height="238"/>
<path d="M409.28 241V147.88L323.52 10.6001H382.72L450.56 132.52H422.72L490.24 10.6001H544.32L458.56 147.88V241H409.28Z"/>
<path d="M598.915 244.2C580.995 244.2 565.208 240.68 551.555 233.64C538.115 226.387 527.555 216.36 519.875 203.56C512.408 190.547 508.675 175.613 508.675 158.76C508.675 141.907 512.408 127.187 519.875 114.6C527.555 102.013 538.115 92.2001 551.555 85.1601C565.208 78.1201 580.995 74.6001 598.915 74.6001C617.048 74.6001 632.835 78.1201 646.275 85.1601C659.928 92.2001 670.488 102.013 677.955 114.6C685.421 127.187 689.155 141.907 689.155 158.76C689.155 175.613 685.315 190.547 677.635 203.56C670.168 216.36 659.608 226.387 645.955 233.64C632.515 240.68 616.835 244.2 598.915 244.2ZM598.915 206.44C606.381 206.44 613.101 204.52 619.075 200.68C625.261 196.84 630.168 191.4 633.795 184.36C637.421 177.107 639.235 168.467 639.235 158.44C639.235 143.72 635.288 132.413 627.395 124.52C619.715 116.413 610.221 112.36 598.915 112.36C587.608 112.36 578.008 116.413 570.115 124.52C562.435 132.627 558.595 143.933 558.595 158.44C558.595 168.467 560.408 177.107 564.035 184.36C567.661 191.4 572.461 196.84 578.435 200.68C584.621 204.52 591.448 206.44 598.915 206.44Z"/>
<path d="M705 241V10.6001H753V241H705Z"/>
<path d="M859.09 244.2C841.17 244.2 825.383 240.68 811.73 233.64C798.29 226.387 787.73 216.36 780.05 203.56C772.583 190.547 768.85 175.613 768.85 158.76C768.85 141.907 772.583 127.187 780.05 114.6C787.73 102.013 798.29 92.2001 811.73 85.1601C825.383 78.1201 841.17 74.6001 859.09 74.6001C877.223 74.6001 893.01 78.1201 906.45 85.1601C920.103 92.2001 930.663 102.013 938.13 114.6C945.596 127.187 949.33 141.907 949.33 158.76C949.33 175.613 945.49 190.547 937.81 203.56C930.343 216.36 919.783 226.387 906.13 233.64C892.69 240.68 877.01 244.2 859.09 244.2ZM859.09 206.44C866.556 206.44 873.276 204.52 879.25 200.68C885.436 196.84 890.343 191.4 893.97 184.36C897.596 177.107 899.41 168.467 899.41 158.44C899.41 143.72 895.463 132.413 887.57 124.52C879.89 116.413 870.396 112.36 859.09 112.36C847.783 112.36 838.183 116.413 830.29 124.52C822.61 132.627 818.77 143.933 818.77 158.44C818.77 168.467 820.583 177.107 824.21 184.36C827.836 191.4 832.636 196.84 838.61 200.68C844.796 204.52 851.623 206.44 859.09 206.44Z"/>
<path d="M961.974 241V10.6001H1071.41C1088.48 10.6001 1103.09 13.5868 1115.25 19.5601C1127.63 25.5334 1137.12 33.8534 1143.73 44.5201C1150.56 55.1868 1153.97 67.6668 1153.97 81.9601C1153.97 96.2534 1150.56 108.84 1143.73 119.72C1136.91 130.6 1127.31 139.133 1114.93 145.32C1102.77 151.293 1088.27 154.28 1071.41 154.28H1001.01V116.52H1068.85C1080.16 116.52 1088.91 113.427 1095.09 107.24C1101.49 100.84 1104.69 92.5201 1104.69 82.2801C1104.69 72.0401 1101.49 63.8268 1095.09 57.6401C1088.91 51.4534 1080.16 48.3601 1068.85 48.3601H1011.25V241H961.974Z"/>
<path d="M1262.67 241C1261.39 236.307 1260.43 231.293 1259.79 225.96C1259.36 220.627 1259.15 214.44 1259.15 207.4H1257.87V130.28C1257.87 123.667 1255.63 118.547 1251.15 114.92C1246.88 111.08 1240.48 109.16 1231.95 109.16C1223.84 109.16 1217.34 110.547 1212.43 113.32C1207.74 116.093 1204.64 120.147 1203.15 125.48H1157.39C1159.52 110.76 1167.1 98.6001 1180.11 89.0001C1193.12 79.4001 1210.94 74.6001 1233.55 74.6001C1257.02 74.6001 1274.94 79.8268 1287.31 90.2801C1299.68 100.733 1305.87 115.773 1305.87 135.4V207.4C1305.87 212.733 1306.19 218.173 1306.83 223.72C1307.68 229.053 1308.96 234.813 1310.67 241H1262.67ZM1205.71 244.2C1189.5 244.2 1176.59 240.147 1166.99 232.04C1157.39 223.72 1152.59 212.733 1152.59 199.08C1152.59 183.933 1158.24 171.773 1169.55 162.6C1181.07 153.213 1197.07 147.133 1217.55 144.36L1265.23 137.64V165.48L1225.55 171.56C1217.02 172.84 1210.72 175.187 1206.67 178.6C1202.62 182.013 1200.59 186.707 1200.59 192.68C1200.59 198.013 1202.51 202.067 1206.35 204.84C1210.19 207.613 1215.31 209 1221.71 209C1231.74 209 1240.27 206.333 1247.31 201C1254.35 195.453 1257.87 189.053 1257.87 181.8L1262.35 207.4C1257.66 219.56 1250.51 228.733 1240.91 234.92C1231.31 241.107 1219.58 244.2 1205.71 244.2Z"/>
<path d="M1444.93 241V204.84L1448.13 205.48C1446 217.213 1439.6 226.6 1428.93 233.64C1418.48 240.68 1405.89 244.2 1391.17 244.2C1376.24 244.2 1363.23 240.787 1352.13 233.96C1341.25 226.92 1332.83 217.107 1326.85 204.52C1320.88 191.933 1317.89 177.107 1317.89 160.04C1317.89 142.76 1320.99 127.72 1327.17 114.92C1333.36 102.12 1342 92.2001 1353.09 85.1601C1364.4 78.1201 1377.52 74.6001 1392.45 74.6001C1408.03 74.6001 1420.61 78.2268 1430.21 85.4801C1440.03 92.7334 1445.79 102.653 1447.49 115.24L1443.97 115.56V10.6001H1491.97V241H1444.93ZM1406.53 205.8C1417.84 205.8 1427.01 201.853 1434.05 193.96C1441.09 185.853 1444.61 174.333 1444.61 159.4C1444.61 144.467 1440.99 133.053 1433.73 125.16C1426.69 117.053 1417.41 113 1405.89 113C1394.8 113 1385.63 117.053 1378.37 125.16C1371.33 133.267 1367.81 144.787 1367.81 159.72C1367.81 174.653 1371.33 186.067 1378.37 193.96C1385.63 201.853 1395.01 205.8 1406.53 205.8Z"/>
</mask>
<path d="M409.28 241V147.88L323.52 10.6001H382.72L450.56 132.52H422.72L490.24 10.6001H544.32L458.56 147.88V241H409.28Z" fill="black"/>
<path d="M598.915 244.2C580.995 244.2 565.208 240.68 551.555 233.64C538.115 226.387 527.555 216.36 519.875 203.56C512.408 190.547 508.675 175.613 508.675 158.76C508.675 141.907 512.408 127.187 519.875 114.6C527.555 102.013 538.115 92.2001 551.555 85.1601C565.208 78.1201 580.995 74.6001 598.915 74.6001C617.048 74.6001 632.835 78.1201 646.275 85.1601C659.928 92.2001 670.488 102.013 677.955 114.6C685.421 127.187 689.155 141.907 689.155 158.76C689.155 175.613 685.315 190.547 677.635 203.56C670.168 216.36 659.608 226.387 645.955 233.64C632.515 240.68 616.835 244.2 598.915 244.2ZM598.915 206.44C606.381 206.44 613.101 204.52 619.075 200.68C625.261 196.84 630.168 191.4 633.795 184.36C637.421 177.107 639.235 168.467 639.235 158.44C639.235 143.72 635.288 132.413 627.395 124.52C619.715 116.413 610.221 112.36 598.915 112.36C587.608 112.36 578.008 116.413 570.115 124.52C562.435 132.627 558.595 143.933 558.595 158.44C558.595 168.467 560.408 177.107 564.035 184.36C567.661 191.4 572.461 196.84 578.435 200.68C584.621 204.52 591.448 206.44 598.915 206.44Z" fill="black"/>
<path d="M705 241V10.6001H753V241H705Z" fill="black"/>
<path d="M859.09 244.2C841.17 244.2 825.383 240.68 811.73 233.64C798.29 226.387 787.73 216.36 780.05 203.56C772.583 190.547 768.85 175.613 768.85 158.76C768.85 141.907 772.583 127.187 780.05 114.6C787.73 102.013 798.29 92.2001 811.73 85.1601C825.383 78.1201 841.17 74.6001 859.09 74.6001C877.223 74.6001 893.01 78.1201 906.45 85.1601C920.103 92.2001 930.663 102.013 938.13 114.6C945.596 127.187 949.33 141.907 949.33 158.76C949.33 175.613 945.49 190.547 937.81 203.56C930.343 216.36 919.783 226.387 906.13 233.64C892.69 240.68 877.01 244.2 859.09 244.2ZM859.09 206.44C866.556 206.44 873.276 204.52 879.25 200.68C885.436 196.84 890.343 191.4 893.97 184.36C897.596 177.107 899.41 168.467 899.41 158.44C899.41 143.72 895.463 132.413 887.57 124.52C879.89 116.413 870.396 112.36 859.09 112.36C847.783 112.36 838.183 116.413 830.29 124.52C822.61 132.627 818.77 143.933 818.77 158.44C818.77 168.467 820.583 177.107 824.21 184.36C827.836 191.4 832.636 196.84 838.61 200.68C844.796 204.52 851.623 206.44 859.09 206.44Z" fill="black"/>
<path d="M961.974 241V10.6001H1071.41C1088.48 10.6001 1103.09 13.5868 1115.25 19.5601C1127.63 25.5334 1137.12 33.8534 1143.73 44.5201C1150.56 55.1868 1153.97 67.6668 1153.97 81.9601C1153.97 96.2534 1150.56 108.84 1143.73 119.72C1136.91 130.6 1127.31 139.133 1114.93 145.32C1102.77 151.293 1088.27 154.28 1071.41 154.28H1001.01V116.52H1068.85C1080.16 116.52 1088.91 113.427 1095.09 107.24C1101.49 100.84 1104.69 92.5201 1104.69 82.2801C1104.69 72.0401 1101.49 63.8268 1095.09 57.6401C1088.91 51.4534 1080.16 48.3601 1068.85 48.3601H1011.25V241H961.974Z" fill="black"/>
<path d="M1262.67 241C1261.39 236.307 1260.43 231.293 1259.79 225.96C1259.36 220.627 1259.15 214.44 1259.15 207.4H1257.87V130.28C1257.87 123.667 1255.63 118.547 1251.15 114.92C1246.88 111.08 1240.48 109.16 1231.95 109.16C1223.84 109.16 1217.34 110.547 1212.43 113.32C1207.74 116.093 1204.64 120.147 1203.15 125.48H1157.39C1159.52 110.76 1167.1 98.6001 1180.11 89.0001C1193.12 79.4001 1210.94 74.6001 1233.55 74.6001C1257.02 74.6001 1274.94 79.8268 1287.31 90.2801C1299.68 100.733 1305.87 115.773 1305.87 135.4V207.4C1305.87 212.733 1306.19 218.173 1306.83 223.72C1307.68 229.053 1308.96 234.813 1310.67 241H1262.67ZM1205.71 244.2C1189.5 244.2 1176.59 240.147 1166.99 232.04C1157.39 223.72 1152.59 212.733 1152.59 199.08C1152.59 183.933 1158.24 171.773 1169.55 162.6C1181.07 153.213 1197.07 147.133 1217.55 144.36L1265.23 137.64V165.48L1225.55 171.56C1217.02 172.84 1210.72 175.187 1206.67 178.6C1202.62 182.013 1200.59 186.707 1200.59 192.68C1200.59 198.013 1202.51 202.067 1206.35 204.84C1210.19 207.613 1215.31 209 1221.71 209C1231.74 209 1240.27 206.333 1247.31 201C1254.35 195.453 1257.87 189.053 1257.87 181.8L1262.35 207.4C1257.66 219.56 1250.51 228.733 1240.91 234.92C1231.31 241.107 1219.58 244.2 1205.71 244.2Z" fill="black"/>
<path d="M1444.93 241V204.84L1448.13 205.48C1446 217.213 1439.6 226.6 1428.93 233.64C1418.48 240.68 1405.89 244.2 1391.17 244.2C1376.24 244.2 1363.23 240.787 1352.13 233.96C1341.25 226.92 1332.83 217.107 1326.85 204.52C1320.88 191.933 1317.89 177.107 1317.89 160.04C1317.89 142.76 1320.99 127.72 1327.17 114.92C1333.36 102.12 1342 92.2001 1353.09 85.1601C1364.4 78.1201 1377.52 74.6001 1392.45 74.6001C1408.03 74.6001 1420.61 78.2268 1430.21 85.4801C1440.03 92.7334 1445.79 102.653 1447.49 115.24L1443.97 115.56V10.6001H1491.97V241H1444.93ZM1406.53 205.8C1417.84 205.8 1427.01 201.853 1434.05 193.96C1441.09 185.853 1444.61 174.333 1444.61 159.4C1444.61 144.467 1440.99 133.053 1433.73 125.16C1426.69 117.053 1417.41 113 1405.89 113C1394.8 113 1385.63 117.053 1378.37 125.16C1371.33 133.267 1367.81 144.787 1367.81 159.72C1367.81 174.653 1371.33 186.067 1378.37 193.96C1385.63 201.853 1395.01 205.8 1406.53 205.8Z" fill="black"/>
<path d="M409.28 241V147.88L323.52 10.6001H382.72L450.56 132.52H422.72L490.24 10.6001H544.32L458.56 147.88V241H409.28Z" stroke="black" stroke-width="4" mask="url(#path-2-outside-1_38_99)"/>
<path d="M598.915 244.2C580.995 244.2 565.208 240.68 551.555 233.64C538.115 226.387 527.555 216.36 519.875 203.56C512.408 190.547 508.675 175.613 508.675 158.76C508.675 141.907 512.408 127.187 519.875 114.6C527.555 102.013 538.115 92.2001 551.555 85.1601C565.208 78.1201 580.995 74.6001 598.915 74.6001C617.048 74.6001 632.835 78.1201 646.275 85.1601C659.928 92.2001 670.488 102.013 677.955 114.6C685.421 127.187 689.155 141.907 689.155 158.76C689.155 175.613 685.315 190.547 677.635 203.56C670.168 216.36 659.608 226.387 645.955 233.64C632.515 240.68 616.835 244.2 598.915 244.2ZM598.915 206.44C606.381 206.44 613.101 204.52 619.075 200.68C625.261 196.84 630.168 191.4 633.795 184.36C637.421 177.107 639.235 168.467 639.235 158.44C639.235 143.72 635.288 132.413 627.395 124.52C619.715 116.413 610.221 112.36 598.915 112.36C587.608 112.36 578.008 116.413 570.115 124.52C562.435 132.627 558.595 143.933 558.595 158.44C558.595 168.467 560.408 177.107 564.035 184.36C567.661 191.4 572.461 196.84 578.435 200.68C584.621 204.52 591.448 206.44 598.915 206.44Z" stroke="black" stroke-width="4" mask="url(#path-2-outside-1_38_99)"/>
<path d="M705 241V10.6001H753V241H705Z" stroke="black" stroke-width="4" mask="url(#path-2-outside-1_38_99)"/>
<path d="M859.09 244.2C841.17 244.2 825.383 240.68 811.73 233.64C798.29 226.387 787.73 216.36 780.05 203.56C772.583 190.547 768.85 175.613 768.85 158.76C768.85 141.907 772.583 127.187 780.05 114.6C787.73 102.013 798.29 92.2001 811.73 85.1601C825.383 78.1201 841.17 74.6001 859.09 74.6001C877.223 74.6001 893.01 78.1201 906.45 85.1601C920.103 92.2001 930.663 102.013 938.13 114.6C945.596 127.187 949.33 141.907 949.33 158.76C949.33 175.613 945.49 190.547 937.81 203.56C930.343 216.36 919.783 226.387 906.13 233.64C892.69 240.68 877.01 244.2 859.09 244.2ZM859.09 206.44C866.556 206.44 873.276 204.52 879.25 200.68C885.436 196.84 890.343 191.4 893.97 184.36C897.596 177.107 899.41 168.467 899.41 158.44C899.41 143.72 895.463 132.413 887.57 124.52C879.89 116.413 870.396 112.36 859.09 112.36C847.783 112.36 838.183 116.413 830.29 124.52C822.61 132.627 818.77 143.933 818.77 158.44C818.77 168.467 820.583 177.107 824.21 184.36C827.836 191.4 832.636 196.84 838.61 200.68C844.796 204.52 851.623 206.44 859.09 206.44Z" stroke="black" stroke-width="4" mask="url(#path-2-outside-1_38_99)"/>
<path d="M961.974 241V10.6001H1071.41C1088.48 10.6001 1103.09 13.5868 1115.25 19.5601C1127.63 25.5334 1137.12 33.8534 1143.73 44.5201C1150.56 55.1868 1153.97 67.6668 1153.97 81.9601C1153.97 96.2534 1150.56 108.84 1143.73 119.72C1136.91 130.6 1127.31 139.133 1114.93 145.32C1102.77 151.293 1088.27 154.28 1071.41 154.28H1001.01V116.52H1068.85C1080.16 116.52 1088.91 113.427 1095.09 107.24C1101.49 100.84 1104.69 92.5201 1104.69 82.2801C1104.69 72.0401 1101.49 63.8268 1095.09 57.6401C1088.91 51.4534 1080.16 48.3601 1068.85 48.3601H1011.25V241H961.974Z" stroke="black" stroke-width="4" mask="url(#path-2-outside-1_38_99)"/>
<path d="M1262.67 241C1261.39 236.307 1260.43 231.293 1259.79 225.96C1259.36 220.627 1259.15 214.44 1259.15 207.4H1257.87V130.28C1257.87 123.667 1255.63 118.547 1251.15 114.92C1246.88 111.08 1240.48 109.16 1231.95 109.16C1223.84 109.16 1217.34 110.547 1212.43 113.32C1207.74 116.093 1204.64 120.147 1203.15 125.48H1157.39C1159.52 110.76 1167.1 98.6001 1180.11 89.0001C1193.12 79.4001 1210.94 74.6001 1233.55 74.6001C1257.02 74.6001 1274.94 79.8268 1287.31 90.2801C1299.68 100.733 1305.87 115.773 1305.87 135.4V207.4C1305.87 212.733 1306.19 218.173 1306.83 223.72C1307.68 229.053 1308.96 234.813 1310.67 241H1262.67ZM1205.71 244.2C1189.5 244.2 1176.59 240.147 1166.99 232.04C1157.39 223.72 1152.59 212.733 1152.59 199.08C1152.59 183.933 1158.24 171.773 1169.55 162.6C1181.07 153.213 1197.07 147.133 1217.55 144.36L1265.23 137.64V165.48L1225.55 171.56C1217.02 172.84 1210.72 175.187 1206.67 178.6C1202.62 182.013 1200.59 186.707 1200.59 192.68C1200.59 198.013 1202.51 202.067 1206.35 204.84C1210.19 207.613 1215.31 209 1221.71 209C1231.74 209 1240.27 206.333 1247.31 201C1254.35 195.453 1257.87 189.053 1257.87 181.8L1262.35 207.4C1257.66 219.56 1250.51 228.733 1240.91 234.92C1231.31 241.107 1219.58 244.2 1205.71 244.2Z" stroke="black" stroke-width="4" mask="url(#path-2-outside-1_38_99)"/>
<path d="M1444.93 241V204.84L1448.13 205.48C1446 217.213 1439.6 226.6 1428.93 233.64C1418.48 240.68 1405.89 244.2 1391.17 244.2C1376.24 244.2 1363.23 240.787 1352.13 233.96C1341.25 226.92 1332.83 217.107 1326.85 204.52C1320.88 191.933 1317.89 177.107 1317.89 160.04C1317.89 142.76 1320.99 127.72 1327.17 114.92C1333.36 102.12 1342 92.2001 1353.09 85.1601C1364.4 78.1201 1377.52 74.6001 1392.45 74.6001C1408.03 74.6001 1420.61 78.2268 1430.21 85.4801C1440.03 92.7334 1445.79 102.653 1447.49 115.24L1443.97 115.56V10.6001H1491.97V241H1444.93ZM1406.53 205.8C1417.84 205.8 1427.01 201.853 1434.05 193.96C1441.09 185.853 1444.61 174.333 1444.61 159.4C1444.61 144.467 1440.99 133.053 1433.73 125.16C1426.69 117.053 1417.41 113 1405.89 113C1394.8 113 1385.63 117.053 1378.37 125.16C1371.33 133.267 1367.81 144.787 1367.81 159.72C1367.81 174.653 1371.33 186.067 1378.37 193.96C1385.63 201.853 1395.01 205.8 1406.53 205.8Z" stroke="black" stroke-width="4" mask="url(#path-2-outside-1_38_99)"/>
</svg>
