<svg width="1024" height="1024" viewBox="0 0 1024 1024" fill="none" xmlns="http://www.w3.org/2000/svg">
<path d="M553.207 554.123L482.999 554.123C475.55 554.123 468.407 557.082 463.141 562.349C457.874 567.615 454.915 574.759 454.915 582.207C454.915 589.655 457.874 596.798 463.141 602.065C468.407 607.331 475.55 610.29 482.999 610.29L511.082 610.29L511.082 624.332C511.082 631.78 514.041 638.923 519.307 644.19C524.574 649.456 531.717 652.415 539.165 652.415C546.613 652.415 553.756 649.456 559.023 644.19C564.29 638.923 567.248 631.78 567.248 624.332L567.248 608.886C584.311 605.421 599.478 595.74 609.804 581.722C620.131 567.704 624.88 550.349 623.13 533.026C621.38 515.703 613.256 499.648 600.335 487.978C587.414 476.308 570.618 469.856 553.207 469.873L525.124 469.873C521.399 469.873 517.828 468.394 515.195 465.761C512.561 463.127 511.082 459.556 511.082 455.832C511.082 452.108 512.561 448.536 515.195 445.903C517.828 443.269 521.399 441.79 525.124 441.79L595.332 441.79C602.78 441.79 609.923 438.831 615.19 433.565C620.456 428.298 623.415 421.155 623.415 413.707C623.415 406.259 620.456 399.115 615.19 393.849C609.923 388.582 602.78 385.623 595.332 385.623L567.249 385.623L567.249 371.582C567.249 364.134 564.29 356.99 559.023 351.724C553.756 346.457 546.613 343.498 539.165 343.498C531.717 343.498 524.574 346.457 519.307 351.724C514.041 356.99 511.082 364.134 511.082 371.582L511.082 387.028C494.019 390.492 478.852 400.173 468.526 414.192C458.2 428.21 453.45 445.565 455.2 462.888C456.95 480.21 465.074 496.265 477.995 507.935C490.916 519.605 507.713 526.058 525.124 526.04L553.207 526.04C556.931 526.04 560.502 527.519 563.136 530.153C565.769 532.786 567.249 536.358 567.249 540.082C567.249 543.806 565.769 547.377 563.136 550.011C560.502 552.644 556.931 554.123 553.207 554.123ZM230.249 511.998L314.499 511.998L314.499 764.748C314.479 769.697 315.767 774.563 318.233 778.853C320.699 783.144 324.255 786.707 328.54 789.181C332.809 791.646 337.652 792.943 342.582 792.943C347.511 792.943 352.354 791.646 356.624 789.181L440.874 740.878L525.123 789.181C529.393 791.646 534.236 792.943 539.165 792.943C544.095 792.943 548.938 791.646 553.207 789.181L637.457 740.878L721.707 789.181C725.976 791.646 730.819 792.943 735.748 792.943C740.678 792.943 745.521 791.646 749.79 789.181C754.076 786.707 757.632 783.144 760.097 778.853C762.563 774.563 763.851 769.697 763.832 764.748L763.832 315.415C763.832 293.071 754.956 271.641 739.156 255.841C723.356 240.041 701.926 231.165 679.582 231.165L286.415 231.165C264.071 231.165 242.641 240.041 226.841 255.841C211.042 271.641 202.165 293.071 202.165 315.415L202.165 483.915C202.165 491.363 205.124 498.506 210.391 503.773C215.657 509.04 222.8 511.998 230.249 511.998ZM679.582 287.332C687.03 287.332 694.173 290.29 699.44 295.557C704.706 300.824 707.665 307.967 707.665 315.415L707.665 716.164L651.498 684.149C647.164 681.885 642.347 680.703 637.457 680.703C632.567 680.703 627.749 681.885 623.415 684.149L539.165 732.453L454.915 684.149C450.581 681.885 445.763 680.703 440.874 680.703C435.984 680.703 431.166 681.885 426.832 684.149L370.665 716.164L370.665 315.415C370.589 305.835 368.88 296.337 365.61 287.332L679.582 287.332ZM258.332 315.415C258.332 307.967 261.291 300.824 266.557 295.557C271.824 290.29 278.967 287.332 286.415 287.332C293.863 287.332 301.007 290.29 306.273 295.557C311.54 300.824 314.499 307.967 314.499 315.415L314.499 455.832L258.332 455.832L258.332 315.415Z" fill="black"/>
</svg>
