<svg width="1024" height="1024" viewBox="0 0 1024 1024" fill="none" xmlns="http://www.w3.org/2000/svg">
<path d="M512 746H263.375C251.739 746 240.579 741.377 232.351 733.149C224.123 724.921 219.5 713.761 219.5 702.125V321.875C219.5 310.239 224.123 299.079 232.351 290.851C240.579 282.623 251.739 278 263.375 278H760.625C772.261 278 783.421 282.623 791.649 290.851C799.878 299.079 804.5 310.239 804.5 321.875V498.238" stroke="black" stroke-width="58.5" stroke-linecap="round" stroke-linejoin="round"/>
<path d="M219.5 321.875C219.5 310.239 224.123 299.079 232.351 290.851C240.579 282.623 251.739 278 263.375 278H760.625C772.261 278 783.421 282.623 791.649 290.851C799.878 299.079 804.5 310.239 804.5 321.875V453.5H219.5V321.875Z" stroke="black" stroke-width="58.5"/>
<path d="M278 365.75C278 349.596 291.096 336.5 307.25 336.5C323.404 336.5 336.5 349.596 336.5 365.75C336.5 381.904 323.404 395 307.25 395C291.096 395 278 381.904 278 365.75Z" fill="black"/>
<path d="M365.75 365.75C365.75 349.596 378.846 336.5 395 336.5C411.154 336.5 424.25 349.596 424.25 365.75C424.25 381.904 411.154 395 395 395C378.846 395 365.75 381.904 365.75 365.75Z" fill="black"/>
<path d="M702.125 702.125C726.356 702.125 746 682.481 746 658.25C746 634.019 726.356 614.375 702.125 614.375C677.894 614.375 658.25 634.019 658.25 658.25C658.25 682.481 677.894 702.125 702.125 702.125Z" stroke="black" stroke-width="58.5"/>
<path d="M702.118 760.625V702.125M702.118 614.375V555.875M613.461 709.438L664.122 680.188M740.113 636.312L790.774 607.062M613.461 607.062L664.122 636.312M740.113 680.188L790.774 709.438" stroke="black" stroke-width="58.5" stroke-linecap="round" stroke-linejoin="round"/>
</svg>
